<svg xmlns="http://www.w3.org/2000/svg" viewBox="0 0 64 64" id="deadlift">
  <g fill="#ff8c00">
    <g id="Outline">
      <g>
        <path d="M54,39.5c-.34998,0-.69.07001-1,.17999v-.17999c0-1.65002-1.34998-3-3-3s-3,1.34998-3,3v2h-9v-2.17999c.31.10999.65002.17999,1,.17999,1.65002,0,3-1.35004,3-3v-12c0-2.76001-2.23999-5-5-5h-1.56c.34998-.59003.56-1.27002.56-2v-2c0-2.21002-1.78998-4-4-4s-4,1.78998-4,4v2c0,.72998.21002,1.40997.56,2h-1.56c-2.76001,0-5,2.23999-5,5v2c0,.54999.45001,1,1,1s1-.45001,1-1v-2c0-1.65002,1.34998-3,3-3h10c1.65002,0,3,1.34998,3,3v12c0,.54999-.45001,1-1,1s-1-.45001-1-1v-9c0-.54999-.45001-1-1-1s-1,.45001-1,1v23h-3v-18c0-.54999-.45001-1-1-1s-1,.45001-1,1v18h-3v-23c0-.54999-.45001-1-1-1s-1,.45001-1,1v9c0,.54999-.45001,1-1,1-.27002,0-.51001-.10004-.71002-.31-.19-.17999-.28998-.42004-.28998-.69v-2c0-.54999-.45001-1-1-1s-1,.45001-1,1v2c0,.81.32001,1.57001.87,2.10999.56.57001,1.32001.89001,2.13.89001.34998,0,.69-.07001,1-.17999v2.17999h-9v-2c0-1.65002-1.34998-3-3-3s-3,1.34998-3,3v.17999c-.31-.10999-.65002-.17999-1-.17999-1.65002,0-3,1.34998-3,3v4c0,1.64996,1.34998,3,3,3,.34998,0,.69-.07001,1-.17999v.17999c0,1.64996,1.34998,3,3,3s3-1.35004,3-3v-2h9v4c0,.54999.45001,1,1,1h10c.54999,0,1-.45001,1-1v-4h9v2c0,1.64996,1.34998,3,3,3s3-1.35004,3-3v-.17999c.31.10999.65002.17999,1,.17999,1.65002,0,3-1.35004,3-3v-4c0-1.65002-1.34998-3-3-3ZM34,17.5c0,1.09998-.90002,2-2,2s-2-.90002-2-2v-2c0-1.10004.90002-2,2-2s2,.89996,2,2v2ZM11,46.5c0,.54999-.45001,1-1,1s-1-.45001-1-1v-4c0-.54999.45001-1,1-1s1,.45001,1,1v4ZM15,49.5c0,.54999-.45001,1-1,1s-1-.45001-1-1v-10c0-.54999.45001-1,1-1s1,.45001,1,1v10ZM26,45.5h-9v-2h9v2ZM47,45.5h-9v-2h9v2ZM51,49.5c0,.54999-.45001,1-1,1s-1-.45001-1-1v-10c0-.54999.45001-1,1-1s1,.45001,1,1v10ZM55,46.5c0,.54999-.45001,1-1,1s-1-.45001-1-1v-4c0-.54999.45001-1,1-1s1,.45001,1,1v4Z"></path>
        <circle cx="23" cy="30.5" r="1"></circle>
      </g>
    </g>
  </g>
</svg>
